# xmcd CD database file
#
# Track frame offsets:
#	150
#	34490
#	60985
#	87895
#	122435
#	152450
#
# Disc length: 2376 seconds
#
# Revision: 0
# Processed by: cddbd v1.5.2PL0 Copyright (c) Steve Scherf et al.
# Submitted via: CDex 1.70beta3
#
DISCID=3d094606
DTITLE=Honda Takehiro - Reaching for Heaven
DYEAR=1977
DGENRE=Jazz
TTITLE0=Ostinato
TTITLE1=Little B's Poem
TTITLE2=Lazy Dream
TTITLE3=Beautiful Love
TTITLE4=You are My Heart's Delight
TTITLE5=Paece
EXTD=YEAR: 1977
EXTT0=
EXTT1=
EXTT2=
EXTT3=
EXTT4=
EXTT5=
PLAYORDER=
